<?xml version="1.0" encoding="UTF-8"?><svg xmlns="http://www.w3.org/2000/svg" viewBox="0 0 1224.93 1129.75"><defs><style>.cls-1{isolation:isolate;}.cls-2,.cls-3,.cls-4,.cls-5{fill:#f7a14b;}.cls-3{mix-blend-mode:screen;opacity:.5;}.cls-4{opacity:.8;}.cls-4,.cls-5{mix-blend-mode:multiply;}.cls-5{opacity:.6;}</style></defs><g class="cls-1"><g id="Layer_2"><g id="_лой_1"><g><path class="cls-2" d="M733.61,608.27c11.66-8.78,37.81-2.99,89.65,8.97,150.38,34.67,199.54,80.04,308.4,80.69,42.91,.25,64.36,.38,77.1-12.55,62.66-63.61-63.31-340.94-265.37-509.22C883.32,126.12,734.17,5.56,513.06,.43,444.25-1.16,214.32-6.5,82.74,160.01c-160.01,202.47-41.23,490.24-26.9,523.57,161.92,376.33,689.34,517.57,778.18,412.4,81.2-96.13-177.23-429.81-100.41-487.7Z"/><path class="cls-5" d="M733.61,608.27c11.66-8.78,37.81-2.99,89.65,8.97,150.38,34.67,199.54,80.04,308.4,80.69,23.95,.14,41.21,.24,54.01-1.95-75.74-137.78-196.87-289.72-385.72-372.79-13.62-5.99-27.99-11.8-43.1-17.3-59.23-21.54-120.21,28.78-110.42,91.05,.92,5.86,1.89,11.76,2.91,17.69,16.44,95.71,42.69,181.69,73.05,257.47-6.08-29.57-4.16-52.23,11.22-63.82Z"/><path class="cls-5" d="M750.19,492.62c-11.23-68.33-16.62-132.56-18.25-191.68-50.08-2.15-93.92,42.49-85.51,95.99,.92,5.86,1.89,11.76,2.91,17.69,16.44,95.71,42.69,181.69,73.05,257.47-6.08-29.57-4.16-52.23,11.22-63.82,7.12-5.37,19.7-5.27,40.19-1.68-9.12-36.49-17.11-74.47-23.61-113.98Z"/><path class="cls-4" d="M849,1026.09c-41.27,18.17-79.21,27.81-112.25,32.68-242.49,35.72-510.63-141.18-705.73-444.19,10.83,35.68,21.19,60.54,24.83,69,161.92,376.33,689.34,517.57,778.18,412.4,14.26-16.89,18.02-41.12,14.98-69.88Z"/><path class="cls-3" d="M826.84,222.77c-5.85,7.04,24.05,40.71,32.97,50.77,56.83,64.01,89.54,59.16,147.96,109.08,7.05,6.02,110.81,95.9,119.88,163.08,1.06,7.87,3.78,37.29,24.84,51.84,6.36,4.39,12.7,6.26,16.82,7.15,1.26-12.54,2.1-31.84-1.7-54.67-2.13-12.79-11.46-61.21-75.41-135.39-8.67-10.05-37.29-42.57-94.03-87.76-67.72-53.94-162.06-115.25-171.33-104.09Z"/><path class="cls-3" d="M733.61,226.35c-1.46,19.31-70.61,8.59-114.75,39.45-128.39,89.74-5.92,503.74,53.56,575.59,5.8,7.01,36.8,41.92,53.48,96.34,3.52,11.49,5.51,20.93,6.48,25.92-100.22-65.12-167.23-135.1-208.56-185.05-63.74-77.03-142.66-172.41-155.4-310.67-5.54-60.14-15.2-164.87,58.32-235.44,96.01-92.17,246.77-42.44,257.04-38.88,9.48,3.29,50.97,17.68,49.83,32.74Z"/><path class="cls-5" d="M698.64,468.41c-9.53-58.08-11.32-111.29-9.31-157.57-29.28,15.87-48.76,48.83-42.91,86.09,.92,5.86,1.89,11.76,2.91,17.69,16.44,95.71,42.69,181.69,73.05,257.47-6.08-29.57-4.16-52.23,11.22-63.82,.47-.36,1.01-.65,1.53-.96-15.38-42.06-28.22-88.4-36.5-138.9Z"/><path class="cls-4" d="M120.45,764.32c88.94,107.25,203.79,245.73,403.87,297.88,119.3,31.09,231.25,21.67,324.57-2.13,1.45-10.37,1.4-21.76,.11-33.98-41.27,18.17-79.21,27.81-112.25,32.68-242.49,35.72-510.63-141.18-705.73-444.19,7.35,24.22,14.48,43.44,19.44,55.94,21.05,31.43,44.29,62.81,70,93.8Z"/></g></g></g></g></svg>