<?xml version="1.0" encoding="UTF-8"?><svg xmlns="http://www.w3.org/2000/svg" viewBox="0 0 1455.83 1099.52"><defs><style>.cls-1{isolation:isolate;}.cls-2{fill:#e1e7ea;}.cls-3{fill:#cddbe0;}.cls-4,.cls-5,.cls-6,.cls-7{fill:#f7a14b;}.cls-5{mix-blend-mode:screen;opacity:.5;}.cls-6{opacity:.8;}.cls-6,.cls-7{mix-blend-mode:multiply;}.cls-7{opacity:.6;}</style></defs><g class="cls-1"><g id="Layer_2"><g id="_лой_1"><g><path class="cls-4" d="M274.18,1012.88c-134.26-26.45-152.14-344.6-129.72-484.53,31.7-197.83,165.19-382.42,360.54-471.18,58.41-26.54,253.04-103.9,473.09-17.17,25.23,9.95,186.49,35.67,311.4,230.29,164.05,255.62,43.14,807.91-157.16,828.89-78.02,8.17-216.94-137.13-245.8-191.22-49.26-92.33-57.9-183.98-56.22-248.5,.45-17.36-5.95-34.4-18.29-46.62-7.42-7.34-15.75-12.33-24.68-12.01-32.45,1.18-53.4,71.83-61.04,93.47-55.17,156.25-326.2,343.37-452.1,318.57Z"/><path class="cls-7" d="M876.17,887.29c-32.63-128.42-46.38-269.61-25.27-418.52,6.22-43.9,15.15-86.17,26.29-126.82,4.02-14.67,.73-30.38-8.78-42.26-.15-.18-.29-.37-.44-.55-15.75-19.69-44.12-23.71-64.72-9.17l-3.41,2.41c-13.47,9.51-21.03,25.29-20.1,41.74,4.61,81.17-.28,231.72-86.02,386.83-48.9,88.47-111.56,155.74-175.95,206.71,93.93-63.72,180.01-152.65,208.5-233.36,7.64-21.65,28.59-92.29,61.04-93.47,8.93-.32,17.27,4.67,24.69,12.01,12.38,12.26,18.73,29.37,18.28,46.79-1.53,59.69,5.79,142.53,45.87,227.65Z"/><path class="cls-5" d="M567.64,823.3c11.89,5.84,65.09-66.14,101.95-144.97,42.06-89.94,55.39-172.82,57.6-187.2,15.06-97.86-.51-139.45,36-208.8,26.49-50.31,51.93-61.2,66.6-64.71,21.07-5.04,50.24-2.12,68.76,15.75,25.23,24.35,19.71,65.87,8.64,141.12-6.73,45.74-12.7,57.93-21.6,105.12,0,0-12.53,66.41-15.84,135.36-5.6,116.64,43.1,238.98,70.69,299.71-17.93-88.37-16.22-162.98-8.77-220.51,3.57-27.62,8.19-49.11,14.25-77.37,24.86-115.82,43.09-132.87,59.19-209.19,16.63-78.85,34.32-162.75-11.67-229.4-24.72-35.83-59.1-54-76.17-61.48-9.57-4.19-67.92-28.71-133.99-6.14-62.89,21.49-93.34,72.18-114.76,107.83-35.98,59.9-43.24,115.43-49.91,170.95-12.41,103.37,8.16,116.55,.57,209.76-11.09,136.29-64.02,218.06-51.55,224.17Z"/><path class="cls-7" d="M826.53,545.83c-.23-45.36,.18-89.77,1.16-133.17,.11-4.9-7-5.63-7.89-.8-10.7,58.08-27.32,120.82-52.66,186.06-3.46,8.91-7.01,17.62-10.62,26.2,8.69-13.16,18.98-22.84,30.81-23.27,8.93-.32,17.27,4.67,24.69,12.01,7.71,7.64,13.08,17.15,15.93,27.46-.76-31-1.25-62.49-1.41-94.48Z"/><path class="cls-6" d="M144.46,528.35c-22.42,139.93-4.55,458.09,129.72,484.53,4.71,.93,9.65,1.52,14.75,1.87-2.47-23.05-6.69-42.82-11.86-59.88-1.24-4.1-8.14-25.88-21.93-69.44-53.58-169.26-75.41-235.66-80.41-252.19-22.47-74.35-12.88-160.31,8.17-240.47-18.04,43.76-31.02,89.31-38.44,135.58Z"/><path class="cls-6" d="M1151.94,1095.37c108.34-30.72,190.02-217.24,209.7-417.23-7.83,26.51-18.26,53.11-31.94,79.37-45.21,86.77-101.2,122.93-149.85,248.54-12.04,31.07-21.09,61.08-27.9,89.32Z"/><path class="cls-6" d="M277.07,954.88c-1.24-4.1-8.14-25.88-21.93-69.44-53.58-169.26-75.41-235.66-80.41-252.19-22.47-74.35-12.88-160.31,8.17-240.47-18.04,43.76-31.02,89.31-38.44,135.58-2.29,14.29-4.15,30.47-5.52,47.98,4.71,33.56,11.59,63.44,19.34,89.8,25.43,86.58,56.24,122.02,80.41,213.81,11.61,44.09,17.95,87.14,20.46,128.53,4.85,1.87,9.84,3.37,15.03,4.4,4.71,.93,9.65,1.52,14.75,1.87-2.47-23.05-6.69-42.82-11.86-59.88Z"/><path class="cls-6" d="M1236.49,927.47c26.8-45.17,51.28-63.58,84.06-120.61,13.12-22.82,24.08-45.8,33.24-68.66,3.22-19.78,5.85-39.85,7.84-60.06-7.83,26.51-18.26,53.11-31.94,79.37-45.21,86.77-101.2,122.93-149.85,248.54-12.04,31.07-21.09,61.08-27.9,89.32,11.67-3.31,23.02-8.43,34.03-15.18,8.3-65.8,28.25-115.19,50.52-152.73Z"/><g><path class="cls-2" d="M1343.62,791.1c-.48-.14-6.16-1.84-13.73-4.36-4.61-1.54-9.24-3.15-13.9-4.86-42.17,69.86-91.52,110.35-135.12,221.55,15.61,12.81,32.65,25.27,51.24,36.99,18.59,11.73,36.17,21.11,47.63,26.55,49.38,23.43,103.4,29.72,134.93,31.62-1.69-15.66-3.37-39.11-2.04-67.46,2.69-57.28,15.57-89.65,27.36-146.88,5.78-28.03,12.56-68.2,15.84-118.08-8.66,8.42-26.72,23.45-53.28,28.8,0,0-27.37,5.51-58.93-3.86Z"/><path class="cls-3" d="M1343.62,791.1h0c-9.1-2.75-18.32-5.81-27.63-9.22-14.77,24.47-30.43,45.35-46.41,66.91-.93,1.25-1.85,2.5-2.78,3.75-.25,.34-.5,.68-.76,1.02-1.31,1.78-2.63,3.57-3.95,5.36-.1,.14-.21,.28-.31,.42-1.39,1.89-2.77,3.79-4.16,5.7l-.06,.08c-25.85,35.6-52.19,75.77-76.7,138.29,15.61,12.81,32.65,25.27,51.24,36.99,49.61-56.07,88.65-146.71,111.52-249.31Z"/></g><g><path class="cls-2" d="M255.14,885.44c-53.58-169.26-75.41-235.66-80.41-252.19-.73-2.41-1.42-4.83-2.08-7.26-5.89,3.86-11.86,7.7-17.92,11.53-10,6.31-17.27,10.71-18.41,11.42-19.65,12.04-39.26,40.96-45.61,49.55-11.76,15.93-32.55,35.98-72,51.84,11.19,23.87,27.97,68.05,27.36,125.28-.81,75.44-31.39,130.08-46.07,152.99,41.17,2.81,130.87,2.64,214.28-53.55,22.15-14.93,40.07-31.25,54.41-46.8-3.42-10.81-7.91-24.99-13.55-42.81Z"/><path class="cls-3" d="M172.65,625.99h0c-11.78,7.72-23.89,15.37-36.33,22.94,.25,117.17,20.94,258.61,77.96,326.12,18.13-14.21,36.35-29.77,54.41-46.8-.13-.42-.27-.86-.41-1.3-.3-.94-.59-1.88-.91-2.87-1.77-5.59-3.79-11.96-6.06-19.15-.44-1.39-.9-2.83-1.36-4.29-.98-3.08-2-6.31-3.06-9.67-.57-1.81-1.15-3.64-1.75-5.53-53.58-169.26-75.41-235.66-80.41-252.19-.73-2.41-1.42-4.82-2.08-7.25Z"/></g></g></g></g></g></svg>